<?xml version="1.0" standalone="no"?>
<!DOCTYPE svg PUBLIC "-//W3C//DTD SVG 20010904//EN"
 "http://www.w3.org/TR/2001/REC-SVG-20010904/DTD/svg10.dtd">
<svg version="1.0" xmlns="http://www.w3.org/2000/svg"
 width="449.000000pt" height="140.000000pt" viewBox="0 0 449.000000 140.000000"
 preserveAspectRatio="xMidYMid meet">

<g transform="translate(0.000000,140.000000) scale(0.100000,-0.100000)"
fill="#000000" stroke="none">
<path d="M0 700 l0 -700 2245 0 2245 0 0 700 0 700 -2245 0 -2245 0 0 -700z
m991 481 c6 -7 32 -94 139 -466 80 -279 77 -286 55 150 -8 160 -15 293 -15
298 0 4 24 7 54 7 l53 0 7 -52 c9 -64 8 -749 0 -835 l-7 -62 -41 -9 c-22 -4
-65 -6 -95 -3 l-54 6 -44 140 c-24 77 -49 176 -57 220 l-14 80 -2 -207 c-1
-115 -3 -214 -4 -220 -1 -15 -163 -24 -182 -11 -8 6 -9 102 -3 348 4 187 8
406 8 486 l1 146 98 -5 c53 -2 100 -7 103 -11z m-567 0 c3 -4 2 -62 -3 -127
-8 -119 -5 -204 8 -204 3 1 42 77 85 170 l80 170 50 0 c28 0 57 -4 64 -9 11
-6 -7 -50 -77 -189 -50 -100 -91 -190 -90 -199 0 -10 46 -142 103 -293 l102
-275 -45 -7 c-26 -3 -76 -7 -112 -7 l-67 -1 -11 68 c-59 344 -65 372 -79 372
-13 0 -14 -32 -11 -222 l4 -222 -110 3 c-60 1 -112 5 -115 8 -8 8 -12 738 -5
861 l7 112 108 0 c60 0 111 -4 114 -9z m1678 -7 c54 -18 55 -22 64 -155 10
-148 13 -144 -100 -144 l-94 0 -8 60 -9 60 -77 3 c-91 3 -94 0 -83 -109 8 -80
-3 -74 170 -83 55 -3 121 -8 146 -12 l46 -6 7 -91 c8 -116 8 -263 -1 -361 l-6
-77 -48 -25 c-44 -22 -60 -24 -178 -24 -150 0 -205 15 -223 59 -13 34 -23 226
-14 285 l7 48 52 -7 c115 -14 106 -4 109 -108 l3 -92 57 -3 57 -3 3 130 c3
150 10 141 -104 141 -36 0 -89 5 -116 12 l-50 11 -7 123 c-7 123 1 321 13 341
25 39 293 58 384 27z m556 2 c1 -2 -1 -44 -4 -94 l-7 -92 -55 0 -55 0 8 -383
7 -384 -69 -6 c-37 -4 -90 -7 -117 -7 l-48 0 7 394 8 395 -59 3 -59 3 0 85 0
85 130 5 c116 4 306 2 313 -4z m451 -15 c39 -14 47 -22 57 -56 14 -45 16 -266
6 -617 -7 -214 -8 -229 -28 -249 -31 -30 -123 -39 -276 -26 -121 10 -129 12
-155 39 l-28 29 0 402 c1 394 1 403 23 444 23 44 20 43 142 57 65 7 214 -6
259 -23z m476 15 c85 -4 123 -24 159 -84 26 -43 27 -48 21 -151 -8 -118 -20
-180 -38 -186 -7 -3 -25 -9 -41 -15 l-28 -10 44 -35 c64 -48 70 -78 61 -300
l-8 -180 -45 -3 c-25 -2 -63 -1 -86 3 l-41 6 -5 190 c-6 207 -8 217 -69 238
l-29 10 0 -219 0 -219 -96 -3 c-53 -2 -100 -1 -104 2 -5 3 -8 220 -7 482 l2
477 60 3 c60 3 121 2 250 -6z m703 -11 c9 -3 12 -38 12 -130 l0 -125 -140 0
-140 0 0 -80 0 -80 104 0 103 0 6 -57 c3 -32 5 -58 4 -60 -2 -1 -47 -5 -100
-9 l-97 -7 0 -92 0 -92 53 -7 c28 -3 89 -6 135 -6 l82 0 0 -107 0 -106 -112 6
c-62 4 -166 7 -232 7 l-118 0 5 458 c2 251 8 466 11 477 7 19 15 20 209 17
111 -2 208 -5 215 -7z"/>
<path d="M2847 913 c-4 -3 -7 -120 -7 -258 l0 -252 47 -6 c25 -3 58 -1 73 4
l27 10 6 166 c11 271 10 330 -9 337 -21 8 -129 8 -137 -1z"/>
<path d="M3410 930 l0 -140 49 0 c27 0 53 6 58 13 30 37 19 229 -14 255 -9 6
-34 12 -55 12 l-38 0 0 -140z"/>
</g>
</svg>
